<svg xmlns="http://www.w3.org/2000/svg" width="100" height="100" viewBox="0 0 100 100" fill="none"><path d="M17.353 30.1472L16.0294 31.3237C13.3824 33.5295 10 36.3237 7.35297 39.559C7.05885 39.8531 7.05885 40.4413 7.20591 40.7354L8.08826 42.3531C9.41179 44.706 10.8824 47.5001 12.0589 50.1472C12.353 50.8825 12.7941 51.7648 13.2353 52.5001C13.5294 53.0884 13.9706 53.3825 14.4118 53.6766C15.4412 54.4119 17.2059 54.4119 18.3824 54.1178C26.3236 52.9413 34.1177 51.6178 42.0589 51.0295C42.353 62.206 42.5 73.3825 42.7941 84.4119H39.2647C38.0883 84.4119 37.0589 84.8531 36.3236 85.7354L31.4706 91.3237L31.3236 91.4707C31.0294 91.6178 30.7353 92.059 30.7353 92.3531V96.6178C30.7353 97.206 31.1765 97.7943 31.9118 97.7943H62.6471C63.2353 97.7943 63.8236 97.3531 63.8236 96.6178V92.6472C63.8236 92.5001 63.8236 92.206 63.6765 92.059C63.6765 91.7648 63.6765 91.4707 63.5294 91.3237L59.853 86.0295C59.1177 85.0001 57.9412 84.2648 56.6177 84.2648H52.5L52.7941 68.3825C57.7941 69.1178 61.9118 69.706 66.9118 70.5884C69.7059 71.0295 72.5 71.6178 75.2941 72.059C76.4706 72.206 77.5 72.206 78.6765 72.5001C79.853 72.7942 81.0294 73.0884 82.2059 72.6472C82.6471 72.5001 82.9412 72.206 83.3824 71.7648C83.8236 71.1766 84.1177 70.4413 84.4118 69.8531C85.1471 67.9413 86.1765 66.3237 87.2059 64.559C87.9412 63.3825 90.2941 61.4707 89.2647 60.0001C89.2647 59.706 89.2647 59.4119 89.1177 59.2648C86.7647 55.8825 83.6765 52.7942 81.1765 50.4413L80 49.2648C79.7059 48.9707 79.4118 48.9707 79.1177 48.9707C74.5588 49.559 70 50.5884 65.5883 51.6178C61.6177 52.5001 57.5 53.5295 53.3824 54.1178L53.9706 26.7648C59.2647 27.3531 64.5588 28.0884 69.853 28.9707C72.6471 29.4119 75.4412 30.0001 78.2353 30.4413C79.4118 30.5884 80.4412 30.5884 81.6177 30.8825C82.7941 31.1766 83.9706 31.4707 85.1471 30.8825C85.5883 30.7354 85.8824 30.2942 86.1765 30.0001C86.6177 29.4119 86.9118 28.6766 87.2059 27.9413C87.353 27.5001 87.5 27.206 87.6471 26.7648C88.9706 24.706 90.5883 22.6472 91.9118 20.7354L92.9412 19.2648C93.2353 18.8237 93.2353 18.2354 92.9412 17.9413C90.4412 15.0001 87.353 12.5001 84.853 10.4413L83.6765 9.4119C83.3824 9.26484 83.0883 9.11778 82.7941 9.11778C78.5294 9.70601 73.2353 10.4413 68.2353 11.3237C63.3824 12.059 58.3824 12.9413 54.2647 13.3825L53.9706 8.82366C53.9706 6.9119 53.3824 5.14719 52.0589 3.82366C50 1.61778 46.4706 1.61778 44.4118 3.6766C43.3824 4.4119 42.6471 5.44131 42.2059 6.47072C41.3236 8.52954 41.3236 10.7354 41.4706 12.9413C41.6177 20.7354 41.7647 28.6766 41.9118 36.4707C38.3824 35.5884 34.853 34.559 31.4706 33.3825C27.2059 32.059 22.7941 30.5884 18.2353 29.706C17.9412 29.8531 17.6471 29.8531 17.353 30.1472ZM33.0883 95.5884V93.0884H61.6177V95.5884H33.0883ZM84.1177 68.3825C84.5588 67.6472 85 66.9119 85.4412 66.1766C85.1471 66.9119 84.5588 67.6472 84.1177 68.3825ZM53.0883 56.4707C57.5 55.7354 61.7647 54.8531 65.8824 53.8237C70.2941 52.7942 74.4118 51.9119 78.5294 51.1766L79.4118 52.059C81.6177 54.2648 84.4118 57.059 86.7647 60.0001L86.1765 61.0295C84.4118 63.8237 82.353 67.206 80.5883 70.0001L77.9412 69.559C69.5588 68.2354 60.8824 66.7648 52.9412 64.706L53.0883 56.4707ZM68.2353 13.8237C73.0883 13.0884 78.0883 12.206 82.2059 11.7648L83.0883 12.5001C85.2941 14.4119 88.0883 16.6178 90.2941 19.1178L89.853 19.8531C88.0883 22.206 86.0294 25.1472 84.4118 27.6472C81.0294 27.206 77.353 26.9119 73.5294 26.4707C66.9118 25.8825 60 25.1472 54.4118 23.9707C54.2647 23.9707 53.9706 23.9707 53.8236 23.9707L53.9706 15.8825C58.0883 15.4413 63.2353 14.706 68.2353 13.8237ZM51.7647 8.82366L50.1471 88.6766C50.1471 89.2648 50.5883 89.8531 51.1765 89.8531C51.7647 89.8531 52.2059 89.4119 52.2059 88.8237V86.7648H56.3236C56.9118 86.7648 57.5 87.059 57.7941 87.5001L60.2941 91.0295H34.7059L37.9412 87.3531C38.2353 86.9119 38.8236 86.7648 39.2647 86.7648H42.7941V87.5001C42.7941 88.2354 42.7941 88.8237 43.2353 89.4119C43.5294 90.0001 44.4118 90.2942 45 89.8531C45.5883 89.8531 46.0294 89.2648 46.0294 88.6766V85.5884L44.5588 8.82366C44.5588 7.50013 45 6.32366 45.8824 5.44131C46.3236 5.00013 47.0588 4.4119 48.2353 4.4119C49.4118 4.4119 50.1471 5.00013 50.5883 5.44131C51.3236 6.1766 51.7647 7.50013 51.7647 8.82366ZM30.8824 35.5884C34.4118 36.7648 38.2353 37.9413 42.0589 38.8237C42.0589 40.1472 42.0589 41.4707 42.2059 42.9413C42.2059 44.559 42.2059 46.0295 42.353 47.6472C34.4118 48.9707 26.0294 49.706 17.7941 50.4413L15.1471 50.7354C13.6765 47.7942 11.7647 44.1178 10.2941 41.3237L9.70591 40.2942C12.2059 37.5001 15.1471 35.0001 17.6471 32.9413L18.5294 32.206C22.5 33.0884 26.6177 34.2648 30.8824 35.5884Z" fill="#A32834"></path><path d="M62.7941 21.3236C63.5294 21.6177 64.2647 21.7648 65 21.7648C65.5883 21.7648 66.1765 21.6177 66.6177 21.4707C67.0588 21.3236 67.353 21.0295 67.6471 20.8824C67.9412 20.7354 68.2353 20.4413 68.3824 20.4413C68.9706 20.2942 69.7059 20.4413 70.4412 20.7354L70.7353 20.8824C74.2647 22.0589 78.0883 22.0589 81.4706 20.8824C82.0588 20.7354 82.353 20.0001 82.2059 19.4119C82.0588 18.8236 81.3235 18.5295 80.7353 18.6766C77.6471 19.706 74.4118 19.706 71.3235 18.6766L71.0294 18.5295C70 18.2354 68.8236 17.7942 67.6471 18.2354C67.0588 18.3824 66.6177 18.6766 66.3235 18.9707C66.1765 19.1177 65.8824 19.2648 65.5883 19.4119C65 19.706 64.4118 19.5589 63.6765 19.2648C62.9412 18.9707 62.2059 18.3824 61.6177 17.7942C61.1765 17.353 60.4412 17.5001 60 17.9413C59.5588 18.3824 59.7059 19.1177 60.1471 19.5589C60.8824 20.1472 61.7647 20.8824 62.7941 21.3236Z" fill="#A32834"></path><path d="M17.7942 42.3529C18.5295 42.9411 19.4118 43.5293 20.2942 43.9705C21.0295 44.2646 21.7648 44.4117 22.353 44.4117C22.7942 44.4117 23.2353 44.2646 23.6765 44.1176C24.1177 43.9705 24.4118 43.8235 24.7059 43.5293C24.853 43.3823 25.1471 43.2352 25.2942 43.2352C26.3236 42.794 27.5 43.2352 28.6765 43.6764C29.853 43.9705 31.9118 44.7058 33.6765 43.8235C34.2648 43.5293 34.4118 42.9411 34.1177 42.3529C33.8236 41.7646 33.2353 41.6176 32.6471 41.9117C31.7648 42.3529 30.4412 42.0587 29.2648 41.6176C27.7942 41.1764 26.0295 40.5882 24.4118 41.3235C24.1177 41.4705 23.8236 41.6176 23.5295 41.7646C23.2353 41.9117 23.0883 42.0587 22.7942 42.0587C22.353 42.2058 21.6177 42.2058 20.8824 41.9117C20.1471 41.6176 19.5589 41.0293 18.8236 40.5882C18.3824 40.147 17.6471 40.294 17.2059 40.7352C17.2059 41.3235 17.2059 42.0587 17.7942 42.3529Z" fill="#A32834"></path><path d="M62.9412 62.4999C63.6765 62.9411 64.4118 63.2352 65.1471 63.2352C65.7354 63.2352 66.1765 63.0881 66.6177 62.794C67.206 62.4999 67.5001 62.0587 67.7942 61.7646C67.9412 61.4705 68.2354 61.3234 68.3824 61.1764C68.8236 60.8823 69.4118 61.0293 70.1471 61.3234C70.4412 61.4705 70.8824 61.6175 71.1765 61.7646C71.7648 62.0587 72.2059 62.3528 72.9412 62.4999C74.1177 62.9411 75.7354 62.794 76.7648 61.7646C77.2059 61.3234 77.2059 60.5881 76.7648 60.147C76.3236 59.7058 75.5883 59.7058 75.1471 60.147C74.853 60.4411 74.1177 60.4411 73.5295 60.294C73.0883 60.147 72.6471 59.8528 72.2059 59.7058C71.7648 59.5587 71.4707 59.2646 71.0295 59.1175C69.5589 58.5293 68.2354 58.5293 67.206 59.2646C66.7648 59.5587 66.4707 59.8528 66.1765 60.294C66.0295 60.5881 65.7354 60.7352 65.5883 60.8823C65.2942 61.0293 64.706 61.0293 64.2648 60.7352C63.6765 60.294 63.2354 59.7058 62.7942 59.1175C62.5001 58.6764 61.7648 58.5293 61.3236 58.8234C60.8824 59.1175 60.7354 59.8528 61.0295 60.294C61.4707 61.0293 62.0589 61.9117 62.9412 62.4999Z" fill="#A32834"></path><path d="M23.8236 15.0003C23.6765 15.5885 23.9707 16.1768 24.5589 16.4709C26.7648 17.2062 29.1177 17.9415 31.3236 18.3827H31.6177C32.0589 18.3827 32.6471 18.0885 32.6471 17.5003C32.7942 16.9121 32.353 16.3238 31.7648 16.1768C29.5589 15.7356 27.353 15.0003 25.2942 14.265C24.706 14.118 23.9707 14.4121 23.8236 15.0003Z" fill="#A32834"></path><path d="M29.853 8.08816C29.4118 7.64698 28.6766 7.79404 28.2354 8.23522C27.7942 8.67639 27.9413 9.41169 28.3824 9.85286L32.9413 13.8235C33.0883 13.9705 33.3824 14.1176 33.6766 14.1176C33.9707 14.1176 34.2648 13.9705 34.5589 13.6764C35.0001 13.2352 34.853 12.4999 34.4118 12.0587L29.853 8.08816Z" fill="#A32834"></path><path d="M36.9118 11.7651H37.2059C37.7941 11.618 38.0882 11.0298 37.9412 10.4415L36.6177 5.73566C36.4706 5.14743 35.8824 4.85331 35.2941 5.00037C34.7059 5.14743 34.4118 5.73566 34.5588 6.3239L35.8824 11.0298C36.0294 11.471 36.4706 11.7651 36.9118 11.7651Z" fill="#A32834"></path></svg>