<svg xmlns="http://www.w3.org/2000/svg" width="100" height="100" viewBox="0 0 100 100" fill="none"><path d="M97.0588 76.1764C96.9118 75.4411 96.7647 74.4117 96.6176 73.5294C96.4706 72.5 96.3235 71.6176 96.1765 70.7353C96.0294 70.4411 95.8823 70.147 95.5882 70C93.9706 69.2647 92.2059 68.5294 91.0294 67.3529C90 66.3235 89.8529 65 88.5294 63.6764C86.1765 61.6176 82.7941 62.7941 80.147 63.5294C76.9118 64.7058 72.9412 65.2941 69.4118 65.5882V62.5C73.2353 62.2058 85 61.0294 88.3823 58.8235C90.2941 57.647 91.7647 54.8529 90.4412 52.5C89.8529 51.3235 88.8235 50.5882 88.0882 49.8529C85.4412 47.2059 85.8823 41.9117 84.4118 37.9411C83.0882 34.5588 80.2941 31.6176 76.7647 29.5588C71.3235 26.3235 62.9412 25 56.6176 24.4117L56.4706 20.147C58.5294 19.8529 59.7059 19.1176 60.2941 18.0882C60.8823 16.9117 60.5882 15.4411 59.4118 14.4117C57.2059 12.3529 52.3529 12.0588 49.1176 12.647C47.2059 12.9411 43.8235 13.6764 43.3823 16.0294C43.0882 17.3529 44.1176 18.6764 45.7353 19.4117C46.3235 19.5588 46.9118 19.7058 47.647 19.8529V24.1176C41.0294 24.2647 32.0588 25.4411 26.1765 28.5294C23.5294 29.8529 20 32.3529 17.9412 36.4706C16.9118 38.6764 16.0294 40.8823 15.2941 42.9411C14.7059 44.4117 14.7059 45.8823 13.8235 46.6176C13.0882 47.2058 12.0588 47.647 11.1765 48.3823C9.99999 49.5588 9.41175 51.1764 9.55881 52.9411C9.70587 54.4117 10.5882 55.5882 12.0588 56.4706C12.5 56.9117 13.2353 57.2058 13.8235 57.3529C15.147 58.0882 16.7647 58.5294 18.3823 58.9706C22.2059 59.7058 26.0294 60.2941 29.8529 60.8823V63.8235C17.5 62.2059 16.1765 60.2941 13.6765 61.0294C11.4706 61.7647 11.6176 63.9706 8.08822 66.4706C7.94116 66.4706 7.49999 66.7647 4.55881 68.0882C4.26469 68.2353 3.82352 68.3823 3.67646 68.9706C3.08822 70 2.94116 71.7647 2.94116 72.7941C2.7941 74.7058 3.5294 76.7647 4.85293 78.2353C6.91175 80.7353 10.147 81.9117 13.2353 82.7941C25.7353 86.4706 38.9706 86.9117 51.9118 87.2058C65.7353 87.5 79.7059 87.7941 93.2353 84.5588C94.8529 84.1176 96.9118 83.3823 97.0588 81.6176C97.2059 80.147 95.8823 79.1176 94.4117 78.5294C95.147 78.0882 96.0294 77.647 96.7647 77.2058C97.0588 77.0588 97.2059 76.6176 97.0588 76.1764ZM45.5882 16.6176C45.8823 15.2941 50.7353 14.7058 52.2059 14.7058C57.3529 14.7058 61.0294 17.3529 56.0294 18.0882C55.147 18.2353 52.647 18.6764 50.2941 18.2353C49.1176 18.0882 47.5 17.7941 46.4706 17.5C45.8823 17.2058 45.5882 16.7647 45.5882 16.6176ZM49.7059 20.4411C50.8823 20.5882 52.2059 20.7353 54.1176 20.5882V24.4117C52.647 24.2647 51.1765 24.2647 49.5588 24.2647V20.4411H49.7059ZM15 48.3823C30.147 53.2353 46.4706 55 62.3529 53.2353C62.9412 53.2353 63.3823 52.647 63.3823 52.0588C63.3823 51.4706 62.7941 51.0294 62.2059 51.0294C46.9118 52.647 31.1765 51.1764 16.4706 46.4706C16.9118 45.4411 16.9118 44.5588 17.3529 43.6764C18.0882 41.7647 18.8235 39.5588 20 37.5C23.2353 31.1764 30.4412 28.6764 37.3529 27.5C46.7647 25.8823 56.6176 26.0294 65.8823 27.9411C70.147 28.8235 73.2353 29.8529 75.7353 31.4706C78.9706 33.3823 81.3235 35.8823 82.5 38.8235C84.2647 43.0882 83.0882 48.2353 87.5 52.2058C87.9412 52.647 88.5294 53.0882 88.6765 53.5294C89.2647 54.7059 88.5294 56.3235 87.3529 57.0588C86.0294 57.9411 83.8235 58.0882 81.9118 58.3823C77.9412 58.8235 78.3823 59.1176 68.6765 59.7058H68.2353C45.147 61.0294 28.5294 57.647 23.3823 57.0588C20.147 56.7647 12.2059 56.0294 11.7647 52.7941C11.6176 51.9117 11.9118 50.8823 12.647 50.147C13.0882 49.5588 14.2647 48.9706 15 48.3823ZM32.2059 61.1764C45.4412 62.9411 58.3823 63.2353 67.2059 62.7941V65.8823C58.6765 66.3235 40 65.147 32.2059 64.1176C32.2059 63.6764 32.2059 63.6764 32.2059 61.1764ZM70.147 81.9117C55.2941 82.7941 40.2941 82.3529 25.5882 80.5882C19.2647 79.8529 11.9118 78.6764 5.44116 74.7058L5.88234 70.7353C22.2059 75.5882 39.1176 78.0882 56.0294 78.0882H61.0294C61.6176 78.0882 62.0588 77.5 62.0588 76.9117C62.0588 76.3235 61.4706 75.8823 60.8823 75.8823C43.0882 76.3235 25.147 73.9706 7.94116 69.1176C8.97058 68.6764 9.26469 68.5294 9.41175 68.3823C11.0294 67.2058 12.3529 65.8823 13.3823 64.2647C14.1176 63.2353 14.1176 62.647 17.647 63.6764C26.4706 66.3235 41.6176 67.2058 49.4117 67.647C58.9706 68.2353 71.4706 68.8235 80.8823 65.5882C83.0882 64.8529 85.7353 63.9706 87.0588 65.147C88.8235 66.7647 87.5 68.5294 94.2647 71.6176C94.5588 72.7941 94.7059 74.2647 95 75.7353C87.3529 80.5882 78.2353 81.4706 70.147 81.9117Z" fill="#A32834"></path><path d="M10.8823 22.941C10.4412 23.3822 10.5882 24.1175 11.0294 24.5587C12.6471 25.8822 15.4412 27.3528 16.1765 27.3528C17.3529 27.3528 17.6471 25.5881 16.6176 25.1469C15.1471 24.5587 13.6765 23.8234 12.5 22.794C11.9118 22.3528 11.3235 22.3528 10.8823 22.941Z" fill="#A32834"></path><path d="M18.2353 16.4704C17.6471 16.6175 17.2059 17.2057 17.3529 17.7939C17.7941 20.1469 18.6765 22.4998 19.8529 24.5586C20 24.8528 20.4412 25.1469 20.8823 25.1469C21.7647 25.1469 22.2059 24.2645 21.9118 23.5292C20.8823 21.6175 20.1471 19.5586 19.7059 17.3528C19.4118 16.7645 18.8235 16.3233 18.2353 16.4704Z" fill="#A32834"></path><path d="M25.5882 15.8825L24.1176 23.0884C23.9706 23.8237 24.5588 24.4119 25.1471 24.4119C25.5882 24.4119 26.1765 24.1178 26.1765 23.5296L27.6471 16.3237C27.7941 15.7355 27.3529 15.1472 26.7647 15.0002C26.3235 14.8531 25.7353 15.2943 25.5882 15.8825Z" fill="#A32834"></path><path d="M72.7941 42.5002C72.9412 42.9414 73.3823 43.3826 73.8235 43.3826H74.1176C74.7059 43.2355 75 42.6473 74.8529 42.059C73.5294 36.912 69.1176 32.6473 63.9706 31.6179C63.3823 31.4708 62.7941 31.912 62.647 32.5002C62.5 33.0884 62.9412 33.6767 63.5294 33.8237C67.9412 34.559 71.7647 38.2355 72.7941 42.5002Z" fill="#A32834"></path><path d="M73.8235 46.1765C73.8235 46.7647 74.2647 47.3529 75 47.3529H75.4412C76.0294 47.3529 76.6176 46.9118 76.6176 46.1765C76.6176 45.4412 76.1765 45 75.4412 45H75C74.2647 45 73.8235 45.4412 73.8235 46.1765Z" fill="#A32834"></path></svg>