<svg xmlns="http://www.w3.org/2000/svg" width="100" height="100" viewBox="0 0 100 100" fill="none"><path d="M88.5294 38.2353C87.7941 35.5882 85.4411 33.8235 82.7941 33.8235C80.147 33.6764 77.4999 33.5294 74.8529 33.3823C73.5294 25.4411 66.7646 18.8235 58.8235 17.647C59.4117 17.0588 59.7058 16.1764 59.7058 15.2941C59.7058 13.2353 58.0882 11.6176 56.0293 11.6176C53.9705 11.6176 52.3529 13.2353 52.3529 15.2941C52.3529 16.1764 52.794 17.0588 53.3823 17.7941C45.8823 19.1176 39.2646 25.4411 37.9411 33.0882V33.3823C35.294 33.5294 32.647 33.6764 29.9999 33.9705C27.9411 33.9705 26.1764 35 25.147 36.6176V15.5882C25.147 13.5294 23.8235 11.6176 21.7646 11.1764C14.8529 9.11761 13.3823 8.67643 6.1764 6.61761C5.14699 6.32349 3.97052 6.47055 3.23522 7.20584C1.32346 8.52937 1.32346 11.4705 3.82346 13.2353C4.85287 13.8235 5.88228 14.1176 7.05875 14.5588C10.5882 15.4411 22.3529 18.6764 22.794 18.6764V44.4117C22.647 45.8823 20.7352 62.7941 19.9999 69.8529C19.7058 72.3529 19.5588 75.2941 21.0293 77.3529C22.4999 79.4117 25.147 80.147 27.4999 80.2941C28.8235 80.4411 29.7058 80.147 30.7352 79.8529H30.8823C31.9117 79.5588 32.647 79.4117 33.8235 79.7058C34.5588 79.8529 35.4411 80.147 35.294 80.147H35.4411C32.3529 86.1764 36.6176 93.3823 43.3823 93.3823C48.9705 93.3823 53.5293 88.0882 52.2058 82.2058C53.0882 82.5 53.5293 82.5 53.9705 82.5C56.7646 82.9411 58.8235 81.6176 61.4705 81.7647C63.3823 81.9117 64.9999 83.0882 66.9117 83.0882C68.3823 83.0882 69.8529 82.0588 71.3235 81.7647C69.4117 87.647 73.8235 93.6764 79.8529 93.6764C85.8823 93.6764 90.2941 87.7941 88.3823 81.9117C90.4411 82.3529 91.9117 82.5 93.8235 81.0294C94.8529 80.7352 95.7352 80.147 96.6176 79.5588C97.7941 78.6764 98.3823 76.9117 97.9411 75.147C94.8529 63.2352 91.9117 51.6176 88.5294 38.2353ZM56.0293 13.8235C56.9117 13.8235 57.4999 14.4117 57.4999 15.2941C57.4999 16.1764 56.9117 16.7647 56.0293 16.7647C55.147 16.7647 54.5588 16.1764 54.5588 15.2941C54.5588 14.4117 55.294 13.8235 56.0293 13.8235ZM56.6176 19.7058C64.2646 19.8529 71.1764 25.8823 72.4999 33.3823C60.294 32.9411 49.7058 32.7941 39.9999 33.2353C41.4705 25.5882 48.8235 19.5588 56.6176 19.7058ZM26.1764 39.4117C26.3235 37.5 27.9411 36.0294 29.9999 36.0294C44.7058 34.8529 61.4705 34.8529 82.647 36.0294C84.4117 36.0294 85.8823 37.2058 86.3235 38.8235C89.4117 51.0294 92.647 63.5294 95.8823 75.7353C96.0293 76.4705 95.8823 77.3529 95.2941 77.7941C93.3823 79.2647 89.7058 80.147 86.3235 78.8235C85.7352 78.5294 84.9999 78.3823 84.2646 78.2353C82.647 72.647 81.4705 60 82.3529 53.8235C82.4999 53.2352 82.0588 52.647 81.4705 52.647C80.8823 52.5 80.2941 52.9411 80.2941 53.5294C79.4117 60 80.5882 72.647 82.2058 78.6764C81.1764 79.1176 80.2941 79.8529 79.5588 80C77.7941 80.4411 75.2941 78.2353 72.7941 78.2353C71.3235 78.2353 70.147 78.8235 68.8235 79.4117C65.147 81.1764 65.5882 80.147 62.647 79.1176C61.9117 78.8235 61.1764 78.5294 60.147 78.5294C57.7941 78.5294 55.7352 80.147 53.8235 80C52.3529 80 50.8823 78.8235 49.1176 78.0882C50.147 68.5294 50.5882 53.6764 49.2646 43.2353C49.1176 42.647 48.6764 42.2058 48.0882 42.2058C47.4999 42.3529 47.0588 42.7941 47.0588 43.3823C48.3823 53.3823 47.9411 67.9411 46.9117 77.3529C43.5293 76.9117 40.5882 79.5588 38.0882 78.6764C36.6176 78.2353 35.147 76.4705 32.9411 76.4705C31.7646 76.4705 30.8823 77.0588 29.9999 77.3529C27.794 78.0882 24.2646 77.2058 23.3823 75.147C23.2352 74.4117 23.3823 75.7353 26.1764 39.4117ZM5.14699 11.3235C4.41169 10.8823 3.97052 10.2941 4.11758 9.70584C4.11758 9.11761 4.70581 8.67643 5.29405 8.67643C5.73522 8.67643 14.7058 11.4705 21.0293 13.2353C22.0588 13.5294 22.794 14.5588 22.794 15.5882V16.3235C6.02934 11.9117 5.88228 11.9117 5.14699 11.3235ZM43.3823 91.0294C38.2352 91.0294 34.9999 85.5882 37.3529 81.0294C38.0882 81.3235 38.8235 81.4705 39.7058 81.3235C42.4999 81.6176 43.6764 79.7058 46.1764 80.147C47.0588 80.2941 48.0882 80.5882 49.2646 81.0294C49.8529 82.0588 49.9999 83.0882 49.9999 84.2647C50.294 87.9411 47.2058 91.0294 43.3823 91.0294ZM79.8529 91.3235C74.9999 91.3235 71.6176 86.3235 73.6764 81.7647C75.147 82.2058 76.4705 82.9411 77.9411 83.2352C77.0588 84.7058 78.0882 86.4705 79.8529 86.4705C81.9117 86.4705 82.7941 83.8235 81.1764 82.5C82.9411 81.6176 83.9705 81.0294 86.0293 81.1764C88.3823 85.7353 84.9999 91.3235 79.8529 91.3235Z" fill="#A32834"></path><path opacity="0.2" d="M43.0881 86.4704C44.3064 86.4704 45.294 85.4828 45.294 84.2645C45.294 83.0462 44.3064 82.0586 43.0881 82.0586C41.8699 82.0586 40.8823 83.0462 40.8823 84.2645C40.8823 85.4828 41.8699 86.4704 43.0881 86.4704Z" fill="#A32834"></path><path opacity="0.2" d="M61.7646 24.9997C63.0882 25.735 64.2646 27.0586 64.8529 28.5292C64.9999 29.1174 65.7352 29.4115 66.3235 29.2644C66.9117 29.1174 67.2058 28.3821 67.0588 27.7939C66.3235 25.735 64.8529 24.1174 63.0882 23.088C62.4999 22.7939 61.9117 22.9409 61.6176 23.5292C61.3235 24.1174 61.1764 24.7056 61.7646 24.9997Z" fill="#A32834"></path><path d="M71.7647 11.3236C71.1764 11.1765 70.5882 11.4707 70.4411 12.0589L69.2646 15.8824C69.1176 16.4707 69.4117 17.0589 69.9999 17.206C70.5882 17.353 71.1764 17.0589 71.3235 16.4707L72.4999 12.6471C72.647 12.0589 72.3529 11.4707 71.7647 11.3236Z" fill="#A32834"></path><path opacity="0.2" d="M73.8235 20.441L77.647 16.6175C78.0882 16.1763 78.0882 15.441 77.647 14.9998C77.2058 14.5587 76.4705 14.5587 76.0294 14.9998L72.2058 18.8234C71.7646 19.2645 71.7646 19.9998 72.2058 20.441C72.647 20.8822 73.3823 20.8822 73.8235 20.441Z" fill="#A32834"></path><path d="M75.5882 24.559H80.294C80.8823 24.559 81.4705 24.1178 81.4705 23.3825C81.4705 22.6472 81.0293 22.2061 80.294 22.2061H75.5882C74.9999 22.2061 74.4117 22.6472 74.4117 23.3825C74.4117 24.1178 74.9999 24.559 75.5882 24.559Z" fill="#A32834"></path></svg>