<svg xmlns="http://www.w3.org/2000/svg" width="100" height="100" viewBox="0 0 100 100" fill="none"><path d="M49.2647 70.8826H50.147C58.3823 70.5884 66.1765 65.1473 69.5588 57.3531C70.8823 54.2649 71.6176 51.0296 71.3235 47.9414C71.0294 42.2061 67.647 36.4708 62.5 32.9414C58.5294 30.2943 53.3823 28.8237 48.2353 28.8237C43.0882 28.9708 38.3823 32.5002 36.1765 34.559C34.2647 36.3237 32.647 38.2355 31.4706 40.4414C28.3823 46.0296 27.9412 52.6473 30.2941 58.2355C33.0882 65.7355 41.0294 70.8826 49.2647 70.8826ZM33.2353 41.6178C34.2647 39.7061 35.7353 37.9414 37.5 36.3237C41.0294 33.0884 44.8529 31.1767 48.0882 31.1767H48.5294C53.2353 31.1767 57.647 32.5002 61.1765 34.8531C65.7353 37.9414 68.8235 43.0884 69.1176 48.0884C69.2647 50.7355 68.6765 53.6767 67.5 56.4708C64.4118 63.3826 57.3529 68.3826 50 68.6767C42.5 68.9708 35 64.2649 32.2059 57.5002C30.147 52.5002 30.5882 46.6178 33.2353 41.6178Z" fill="#A32834"></path><path d="M5.88236 95.5885C7.5 95.8826 9.26471 95.0003 10.1471 93.5297C11.0294 92.2062 11.4706 90.4415 11.7647 88.8238C13.0882 82.5003 14.4118 76.1768 15.7353 69.8532C16.0294 68.6768 16.3235 67.3532 16.4706 66.0297C18.8235 72.9415 24.4118 78.8238 30.8824 82.5003C40.8824 88.0885 53.2353 89.265 63.8235 85.1473C71.0294 82.3532 77.2059 77.0591 81.1765 70.4415C82.6471 68.2356 83.9706 65.7356 84.8529 63.2356C85 63.9709 85.1471 64.5591 85.2941 65.2944V65.5885C85.7353 71.4709 86.1765 77.5003 86.6177 83.3826C86.7647 86.1768 87.3529 89.5591 90 90.7356C92.5 91.9121 95.7353 89.8532 96.4706 87.0591C96.7647 86.3238 96.9118 85.7356 96.9118 85.0003C96.9118 83.2356 96.3235 81.765 95.7353 80.2944C95.5882 79.8532 95.2941 79.4121 95.1471 78.9709C92.6471 72.3532 90.8824 64.412 89.4118 56.765C89.2647 56.3238 89.4118 56.0297 89.5588 55.7356C90.2941 53.9709 90 52.0591 89.7059 50.0003C87.7941 39.1179 86.0294 29.4121 83.0882 19.8532C82.9412 19.5591 82.7941 19.1179 82.7941 18.6768C82.5 17.6473 82.2059 16.4709 81.6177 15.4415C81.1765 14.5591 80.4412 13.9709 79.5588 13.8238C78.6765 13.6768 77.6471 13.9709 77.0588 14.7062C75.7353 16.1768 74.7059 18.3826 74.4118 19.8532C74.2647 20.5885 74.1177 21.1768 74.1177 21.9121C67.6471 16.6179 59.2647 13.6768 50.7353 13.6768H50.5882C42.0588 13.6768 32.9412 17.5003 26.1765 23.9709C25.1471 25.0003 24.1177 26.0297 23.2353 27.0591C22.0588 26.3238 20.5882 25.8826 18.8235 25.8826C16.0294 25.7356 13.0882 27.3532 11.1765 29.8532C10.8824 30.0003 10.5882 30.2944 10.4412 30.7356C9.70588 31.9121 9.26471 33.2356 8.82353 34.5591C7.94118 37.2062 8.08824 40.0003 8.67647 42.7944C9.41177 46.0297 11.3235 49.1179 11.6177 52.5003C11.9118 55.0003 11.1765 57.3532 10.5882 59.7062C9.26471 64.7062 7.94118 70.0003 6.47059 75.2944C5.44118 79.1179 4.41177 83.0885 3.52942 86.912C3.08824 88.5297 2.64706 90.2944 2.94118 91.912C3.08824 93.5297 4.26471 95.2944 5.88236 95.5885ZM78.6765 16.1768C78.9706 15.8826 79.1177 16.0297 79.2647 16.0297C79.4118 16.0297 79.5588 16.1768 79.7059 16.3238C80.1471 17.2062 80.4412 18.2356 80.7353 19.265C80.8824 19.7062 81.0294 20.1473 81.0294 20.4415C83.9706 29.8532 85.7353 39.5591 87.6471 50.2944C87.9412 51.9121 88.2353 53.5297 87.6471 54.7062C87.3529 55.4415 87.2059 56.3238 87.3529 57.0591C88.8235 64.7062 90.5882 72.7944 93.2353 79.5591C93.3824 80.0003 93.6765 80.4415 93.8235 80.8826C94.4118 82.2062 94.8529 83.3826 94.8529 84.7062C94.8529 86.1768 93.8235 87.6473 92.5 87.6473C91.4706 87.6473 90.5882 86.6179 90.2941 85.7356C89.8529 84.7062 89.8529 83.3826 89.7059 82.0591V81.765C89.5588 74.7062 88.2353 66.765 86.0294 58.6768C85.8824 58.2356 85.7353 57.7944 85.7353 57.3532C85.4412 56.3238 84.8529 55.5885 83.9706 54.8532C82.6471 53.8238 82.0588 51.9121 81.4706 50.0003C78.6765 40.7356 77.0588 32.9415 76.1765 25.5885C76.1765 25.0003 76.0294 24.5591 76.0294 23.9709C76.0294 22.6473 76.1765 21.4709 76.4706 20.1473C76.9118 19.1179 77.6471 17.2062 78.6765 16.1768ZM27.5 25.4415C33.8235 19.4121 42.5 15.8826 50.4412 15.7356H50.5882C59.1177 15.7356 67.6471 18.9709 73.9706 24.5591C73.9706 25.0003 73.9706 25.4415 74.1177 25.8826C75 33.5297 76.7647 41.3238 79.5588 50.7356C80.2941 52.9415 81.1765 55.2944 82.9412 56.6179C83.3824 57.0591 83.6765 57.5003 83.9706 57.9415C84.1176 58.2356 84.1176 58.6768 84.2647 58.9709C83.0882 63.2356 81.1765 67.3532 78.3824 70.8826C71.7647 79.5591 60.7353 84.7062 49.7059 84.265C38.6765 83.8238 28.2353 77.7944 22.3529 68.5297C19.8529 64.7062 18.2353 60.2944 17.5 55.5885C17.7941 54.1179 18.3824 52.9415 19.4118 51.4709C19.7059 51.0297 20.1471 50.4415 20.7353 49.8532C21.0294 49.4121 21.4706 48.9709 21.6176 48.6768C23.8235 45.8826 26.0294 42.5003 26.9118 38.2356C27.3529 35.8826 27.7941 31.6179 25.4412 28.5297C25.2941 28.3826 25.1471 28.2356 25 28.0885C25.5882 27.3532 26.6177 26.4709 27.5 25.4415ZM18.3824 27.9415H18.6765C20.8824 28.0885 22.6471 28.8238 23.6765 30.1473C25 31.9121 25.4412 34.8532 24.7059 38.0885C23.8235 41.912 21.7647 45.0003 19.7059 47.6474C19.5588 47.9415 19.1177 48.2356 18.8235 48.6768C18.2353 49.265 17.6471 50.0003 17.3529 50.4415C16.1765 52.2062 15.5882 53.5297 15.1471 55.4415V55.5885C15 56.1768 14.8529 56.765 14.8529 57.3532C14.1177 60.8826 13.5294 64.4121 12.9412 67.9415L12.3529 70.7356C11.1765 76.912 10 82.9415 8.82353 88.9709C8.67647 89.7062 8.38236 91.4709 7.5 91.912C7.05883 92.2062 6.32353 92.2062 5.88236 92.0591C5.44118 91.912 5.44118 91.6179 5.44118 91.4709C5.29412 90.7356 5.44118 88.9709 6.02941 86.765C7.94118 79.412 9.70589 72.2062 11.6177 64.8532C12.0588 62.9415 12.6471 60.8826 13.0882 58.9709C13.5294 57.3532 13.9706 55.7356 14.2647 54.265C14.8529 51.765 14.1177 49.5591 13.3824 47.5003C13.0882 46.9121 12.9412 46.3238 12.7941 45.7356C11.3235 40.8826 10 35.5885 12.5 31.6179C13.6765 29.8532 15.8824 27.9415 18.3824 27.9415Z" fill="#A32834"></path><path d="M19.7059 13.2357C19.4118 12.7945 18.6765 12.6475 18.2353 12.9416C17.7941 13.2357 17.647 13.971 17.9412 14.4122C19.4118 16.3239 21.1765 18.0887 23.0882 19.5592C23.2353 19.7063 23.5294 19.7063 23.6765 19.7063C23.9706 19.7063 24.4118 19.5592 24.5588 19.2651C24.8529 18.8239 24.8529 18.0887 24.2647 17.7945C22.5 16.6181 20.8823 15.1475 19.7059 13.2357Z" fill="#A32834"></path><path d="M27.3529 16.3236H27.647C28.2353 16.1765 28.5294 15.5883 28.3823 15.0001L26.4706 7.94123C26.3235 7.35299 25.7353 7.05887 25.147 7.20593C24.5588 7.35299 24.2647 7.94123 24.4117 8.52946L26.4706 15.4412C26.4706 16.0295 26.9117 16.3236 27.3529 16.3236Z" fill="#A32834"></path><path d="M33.0883 5.44138L32.6471 13.5296C32.6471 14.1178 33.0883 14.7061 33.6765 14.7061C34.2647 14.7061 34.7059 14.2649 34.7059 13.6767L35.1471 5.58844C35.1471 5.0002 34.7059 4.41197 34.1177 4.41197C33.5294 4.26491 33.0883 4.70608 33.0883 5.44138Z" fill="#A32834"></path><path d="M46.6177 45.2943H46.9118C47.6471 45.2943 48.3824 44.8532 48.8235 44.2649C49.2647 43.6767 49.4118 42.7944 49.2647 41.912C48.9706 41.1767 48.5294 40.4414 47.7941 40.2943C47.2059 40.1473 46.6177 40.1473 46.0294 40.4414C46.0294 40.4414 46.0294 40.4414 45.8824 40.4414C45.4412 40.1473 44.7059 40.2944 44.4118 40.7355C43.5294 41.912 43.6765 43.6767 44.8529 44.7061C45.1471 45.0002 45.8824 45.2943 46.6177 45.2943ZM46.9118 42.3532L47.0588 42.5002V42.7944C47.0588 42.9414 46.9118 42.9414 46.7647 42.9414C46.7647 42.7944 46.7647 42.6473 46.7647 42.5002C46.6177 42.5002 46.7647 42.3532 46.9118 42.3532Z" fill="#A32834"></path><path d="M41.6177 56.9119C41.6177 57.206 41.7647 57.353 41.7647 57.5001L41.9118 57.6472C42.2059 58.0883 42.7942 58.5295 43.3824 58.6766H43.8236C44.5589 58.6766 45.1471 58.3824 45.4412 57.9413C45.8824 57.353 46.0294 56.4707 45.7353 55.7354C45.4412 55.0001 44.7059 54.4119 43.9706 54.4119C43.6765 54.4119 43.2353 54.5589 43.0883 54.853C42.9412 54.2648 42.2059 53.9707 41.6177 54.2648C41.0294 54.4119 40.7353 55.1472 41.0294 55.7354L41.6177 56.9119Z" fill="#A32834"></path><path d="M55.2941 45.4414C55.147 45.8826 55.147 46.4708 55.2941 47.0591C55.5882 47.6473 56.1764 48.0885 56.9117 48.2355H57.0588C57.5 48.2355 57.9412 47.9414 58.0882 47.5002C58.3823 46.6179 58.3823 45.7355 57.9412 44.8532C57.5 43.9708 56.6176 43.3826 55.7353 43.2355C55.147 43.0885 54.5588 43.5297 54.4117 44.1179C54.2647 44.7061 54.7059 45.2944 55.2941 45.4414Z" fill="#A32834"></path><path d="M51.0294 39.7062H51.1765C51.4706 39.7062 51.9118 39.5592 52.0588 39.265C52.5 39.118 52.7941 38.8239 52.7941 38.3827C52.9412 37.7945 52.5 37.2062 51.9118 37.0592C51.4706 36.9121 51.0294 37.0592 50.7353 37.3533C50.4412 37.6474 50.1471 37.9415 50 38.3827C50 38.9709 50.4412 39.5592 51.0294 39.7062Z" fill="#A32834"></path><path d="M56.0294 57.353C55.4412 57.353 54.8529 57.7942 54.8529 58.3824C54.8529 58.8236 55 59.2648 55.4412 59.4119C55 59.5589 54.8529 59.853 54.7059 60.2942C54.5588 60.8824 55 61.4707 55.5882 61.4707H55.8823C56.3235 61.4707 56.7647 61.3236 57.2059 61.0295C57.647 60.7354 57.9412 60.1471 57.9412 59.5589C57.9412 58.9707 57.7941 58.3824 57.5 57.9413C57.0588 57.6471 56.4706 57.353 56.0294 57.353Z" fill="#A32834"></path><path d="M38.3823 49.2648C38.5294 49.2648 38.6765 49.2648 38.8235 49.1178C39.4118 48.8236 39.7059 48.2354 39.4118 47.6472C39.2647 47.3531 39.1176 47.206 38.9706 47.0589C38.8235 46.9119 38.6765 46.6178 38.5294 46.6178C37.9412 46.3236 37.3529 46.4707 37.0588 47.0589C36.7647 47.6472 36.9118 48.2354 37.2059 48.6766C37.6471 49.1178 37.9412 49.2648 38.3823 49.2648Z" fill="#A32834"></path><path d="M54.1176 55.1473H54.5588C55.147 55.1473 55.7353 54.7061 55.7353 53.9708C55.7353 53.2355 55.147 52.9414 54.5588 52.9414H54.1176C53.5294 52.9414 52.9412 53.3826 52.9412 54.1179C52.9412 54.8532 53.5294 55.1473 54.1176 55.1473Z" fill="#A32834"></path></svg>