<svg xmlns="http://www.w3.org/2000/svg" width="100" height="100" viewBox="0 0 100 100" fill="none"><path d="M15.1471 48.3824C25.0001 47.9412 35.2942 49.5588 44.5589 52.9412H45.0001C45.1471 52.9412 45.4412 52.9412 45.5883 52.7941C45.8824 52.6471 46.0295 52.3529 46.0295 51.9118C46.1765 50.1471 46.3236 48.3824 46.4706 46.6177C46.7648 41.4706 47.2059 36.1765 48.3824 31.3235C48.5295 30.7353 48.2353 30.2941 47.7942 30C38.3824 26.1765 28.2354 24.4118 18.3824 24.8529C17.9412 24.8529 17.5001 25.1471 17.353 25.7353C15.8824 31.3235 14.7059 38.5294 14.1177 47.0588C13.9706 47.9412 14.5589 48.5294 15.1471 48.3824ZM35.7353 47.7941C35.0001 46.7647 34.4118 45.5882 33.6765 44.2647C34.2648 43.8235 35.0001 43.3824 35.5883 42.9412C36.0295 42.6471 36.6177 42.2059 37.0589 41.9118C38.3824 44.5588 39.853 47.0588 41.3236 49.7059C39.5589 49.1177 37.6471 48.6765 35.8824 48.2353C35.7353 47.9412 35.7353 47.7941 35.7353 47.7941ZM32.9412 47.5C28.6765 46.7647 24.4118 46.3235 20.1471 46.1765L28.9706 39.8529C30.2942 42.6471 31.6177 45.2941 32.9412 47.5ZM19.1177 27.2059C28.0883 26.9118 37.353 28.5294 45.8824 31.9118C44.853 36.6177 44.5589 41.7647 44.2648 46.6177C44.2648 47.6471 44.1177 48.8235 43.9706 49.8529C41.9118 46.6177 40.1471 43.0882 38.3824 39.7059C38.2353 39.4118 37.9412 39.2647 37.6471 39.1177C37.353 38.9706 37.0589 39.1177 36.7648 39.2647C35.8824 39.8529 35.0001 40.4412 34.2648 41.0294C33.6765 41.4706 33.2354 41.7647 32.6471 42.2059C31.9118 40.7353 31.1765 39.2647 30.5883 37.6471C30.4412 37.3529 30.1471 37.0588 29.853 37.0588C29.5589 36.9118 29.1177 37.0588 28.9706 37.2059C26.0295 39.2647 16.7648 45.8824 16.4706 46.1765H16.3236C16.9118 38.6765 17.7942 32.3529 19.1177 27.2059Z" fill="#A32834"></path><path d="M34.853 36.9119C36.1766 36.9119 37.353 35.8825 37.353 34.559C37.353 33.2355 36.3236 32.2061 34.853 32.2061C33.3824 32.2061 32.353 33.2355 32.353 34.559C32.353 35.8825 33.5295 36.9119 34.853 36.9119Z" fill="#A32834"></path><path d="M14.1178 57.3529C14.2648 57.3529 14.2648 57.3529 14.1178 57.3529C29.853 57.3529 40.4413 61.0294 41.0295 61.0294C42.353 61.0294 42.5001 59.2647 41.3236 58.8235C32.5001 56.1765 23.2354 55 13.9707 55C13.3825 55 12.9413 55.4412 12.9413 56.1765C13.0883 56.9118 13.5295 57.3529 14.1178 57.3529Z" fill="#A32834"></path><path d="M34.7059 68.3825C29.4118 66.7648 23.9706 66.0295 18.5295 66.1766C17.0589 66.1766 17.0589 68.3825 18.5295 68.3825C23.8236 68.2354 28.9706 68.9707 34.1177 70.4413C34.7059 70.5884 35.2942 70.2942 35.4412 69.706C35.5883 69.1178 35.2942 68.5295 34.7059 68.3825Z" fill="#A32834"></path><path d="M62.206 36.7648C68.8236 35 75.8824 35.5883 82.0589 38.0883C82.206 38.0883 82.353 38.2353 82.5001 38.2353C82.9413 38.2353 83.3824 37.9412 83.5295 37.5C83.8236 36.9118 83.5295 36.3236 82.9413 36.0295C76.1766 33.2353 68.6766 32.7942 61.6177 34.5589C61.0295 34.7059 60.7354 35.2942 60.8824 35.8824C61.0295 36.4706 61.6177 36.9118 62.206 36.7648Z" fill="#A32834"></path><path d="M60.2942 51.0293C66.9118 49.8529 73.8236 49.9999 80.4412 51.3235H80.7354C81.1765 51.3235 81.7648 51.0293 81.7648 50.4411C81.9118 49.8529 81.4706 49.2646 80.8824 49.1176C73.9706 47.647 66.7648 47.4999 59.853 48.6764C59.2648 48.8235 58.8236 49.4117 58.9706 49.9999C59.1177 50.7352 59.7059 51.1764 60.2942 51.0293Z" fill="#A32834"></path><path d="M78.2353 62.353C74.1177 60.2942 69.4118 59.853 63.2353 60.8824C62.6471 61.0295 62.2059 61.6177 62.353 62.206C62.5 62.7942 63.0883 63.2354 63.6765 63.0883C69.2647 62.206 73.6765 62.6471 77.353 64.4118C77.5 64.5589 77.6471 64.5589 77.7941 64.5589C78.2353 64.5589 78.5294 64.2648 78.8235 63.9707C79.1177 63.3824 78.8236 62.6471 78.2353 62.353Z" fill="#A32834"></path><path d="M3.97064 82.7941C5.00005 83.5294 5.14711 84.7059 5.58829 86.0294C5.8824 87.3529 7.35299 88.0882 8.67652 87.7941C18.3824 85.2941 34.2648 85.8823 41.9118 86.9117C43.2353 87.3529 44.5589 87.7941 45.8824 88.3823C46.1765 88.5294 46.4706 88.5294 46.7648 88.3823C59.4118 81.6176 77.0589 82.5 88.6765 90.4411C89.4118 90.8823 90.4412 90.4411 90.4412 89.4117C90.2942 87.5 90.8824 84.7059 92.2059 83.5294C92.5001 83.2353 92.6471 82.9411 92.5001 82.5C93.3824 73.5294 94.2648 64.4117 95.0001 55.147C95.8824 46.0294 96.7648 36.7647 97.5001 27.7941C97.5001 27.3529 97.353 27.0588 97.0589 26.7647C90.5883 21.6176 82.9412 18.8235 73.6765 18.5294C65.4412 18.2353 60.7354 20.2941 53.5295 25.147C43.2353 17.2059 24.7059 14.5588 12.5001 19.7059C12.0589 19.8529 11.9118 20.147 11.7648 20.5882V20.7353C10.5883 21.7647 9.26476 22.9412 9.1177 24.4117C7.64711 42.0588 5.29417 61.7647 2.20593 80.2941C2.20593 81.3235 3.23534 82.2059 3.97064 82.7941ZM45.7353 85.8823C33.8236 81.3235 21.4706 81.0294 9.26476 85C9.26476 83.5294 8.67652 81.9117 7.79417 80.7353C18.9706 77.9412 35.0001 80.147 45.8824 85.7353C45.7353 85.7353 45.7353 85.8823 45.7353 85.8823ZM88.2354 87.3529C76.7648 80.4412 60.4412 79.5588 47.9412 85.147C47.9412 85 47.9412 85 47.9412 84.8529C53.9706 80.2941 60.2942 77.9411 68.3824 77.647C77.0589 77.3529 83.6765 78.8235 89.853 82.5C88.9706 83.9706 88.3824 85.7353 88.2354 87.3529ZM73.6765 20.7353C82.353 21.0294 89.4118 23.5294 95.2942 28.2353C94.4118 37.0588 93.6765 46.0294 92.7942 55C91.9118 63.5294 91.1765 72.2059 90.4412 80.5882C83.9706 76.9117 77.0589 75.4412 68.2354 75.7353C60.4412 76.0294 54.1177 78.0882 48.2353 82.2059C48.9706 73.2353 50.1471 63.3823 51.3236 53.6764C52.353 44.8529 53.3824 35.7353 54.2648 27.5C61.4706 22.3529 65.7353 20.4412 73.6765 20.7353ZM52.0589 26.6176C51.3236 35 50.1471 44.2647 49.1177 53.2353C47.9412 63.3823 46.6177 73.8235 45.8824 83.2353C34.7059 77.647 18.6765 75.5882 7.20593 78.3823C9.26476 59.2647 12.0589 40.4411 13.9706 21.3235C25.5883 17.0588 42.5001 19.4117 52.0589 26.6176Z" fill="#A32834"></path><path d="M34.1176 15.5884C34.7059 15.5884 35.1471 15.0002 35.1471 14.4119C35.1471 13.2355 34.7059 12.059 33.9706 11.1766C33.6765 10.7355 32.9412 10.5884 32.5 10.8825C32.0588 11.1766 31.9118 11.9119 32.2059 12.3531C32.6471 12.9413 32.9412 13.6766 32.9412 14.4119C33.0882 15.1472 33.5294 15.5884 34.1176 15.5884Z" fill="#A32834"></path><path d="M39.2648 14.4117L40.0001 10.7352C40.1471 10.2941 39.706 9.70583 39.1177 9.55878C38.5295 9.41172 37.9413 9.85289 37.7942 10.4411L37.0589 14.1176C36.9118 14.7058 37.353 15.2941 37.9412 15.4411C38.5295 15.4411 39.1177 15 39.2648 14.4117Z" fill="#A32834"></path><path d="M42.3531 16.9117L44.1178 14.5588C44.4119 14.1176 44.4119 13.3823 43.8236 13.0882C43.3825 12.7941 42.6472 12.7941 42.3531 13.3823L40.5883 15.7353C40.0001 16.4706 40.5883 17.5 41.4707 17.5C41.7648 17.3529 42.0589 17.2059 42.3531 16.9117Z" fill="#A32834"></path></svg>